<svg height="512pt" viewBox="-31 0 512 512" width="512pt" xmlns="http://www.w3.org/2000/svg"><path d="m405 362c-19.554688 0-36.226562 12.542969-42.421875 30h-32.578125v-122h30c49.625 0 90-40.375 90-90 0-49.058594-39.128906-87.75-85.5-89.890625-17.25-36.367187-53.9375-60.109375-94.5-60.109375-3.554688 0-6.953125.257812-10.117188.628906-22.0625-19.808594-50.144531-30.628906-79.882812-30.628906-56.238281 0-104.691406 39.808594-116.691406 94.164062-37.246094 11.511719-63.308594 46.074219-63.308594 85.835938 0 49.625 40.375 90 90 90h30v122h-32.578125c-6.195313-17.457031-22.867187-30-42.421875-30-24.8125 0-45 20.1875-45 45s20.1875 45 45 45c19.554688 0 36.226562-12.542969 42.421875-30h47.578125c8.285156 0 15-6.714844 15-15v-137h60v154.578125c-17.460938 6.195313-30 22.867187-30 42.421875 0 24.8125 20.1875 45 45 45s45-20.1875 45-45c0-19.554688-12.539062-36.226562-30-42.421875v-154.578125h60v137c0 8.285156 6.714844 15 15 15h47.578125c6.195313 17.457031 22.867187 30 42.421875 30 24.8125 0 45-20.1875 45-45s-20.1875-45-45-45zm-360 60c-8.269531 0-15-6.730469-15-15s6.730469-15 15-15 15 6.730469 15 15-6.730469 15-15 15zm180 60c-8.269531 0-15-6.730469-15-15s6.730469-15 15-15 15 6.730469 15 15-6.730469 15-15 15zm-195-302c0-28.878906 20.648438-53.640625 49.09375-58.875.558594-.101562 1.097656-.246094 1.632812-.40625 11.082032-1.730469 22.324219-.367188 32.625 3.988281 7.625 3.230469 16.429688-.339843 19.65625-7.972656 3.226563-7.628906-.34375-16.429687-7.972656-19.65625-9.414062-3.980469-19.347656-6.292969-29.421875-6.914063 12.429688-35.308593 45.976563-60.164062 84.386719-60.164062 24.222656 0 46.996094 9.605469 64.117188 27.042969 3.445312 3.507812 8.390624 5.105469 13.238281 4.277343 3.804687-.652343 8.285156-1.320312 12.644531-1.320312 25.542969 0 48.9375 13.257812 62.542969 34.28125-2.554688.820312-5.089844 1.742188-7.578125 2.796875-7.628906 3.226563-11.199219 12.027344-7.972656 19.65625 3.230468 7.636719 12.035156 11.199219 19.65625 7.972656 39.25-16.59375 83.351562 12.339844 83.351562 55.292969 0 33.085938-26.914062 60-60 60h-270c-33.085938 0-60-26.914062-60-60zm375 242c-8.269531 0-15-6.730469-15-15s6.730469-15 15-15 15 6.730469 15 15-6.730469 15-15 15zm0 0"/></svg>